<?xml version="1.0" encoding="iso-8859-1"?>
<!-- Uploaded to: SVG Repo, www.svgrepo.com, Generator: SVG Repo Mixer Tools -->
<svg fill="#000000" version="1.1" id="Layer_1" xmlns="http://www.w3.org/2000/svg" xmlns:xlink="http://www.w3.org/1999/xlink" 
	 viewBox="0 0 512 512" xml:space="preserve">
<g>
	<g>
		<path d="M511.999,44.485H191.11v320.888h320.889L511.999,44.485L511.999,44.485z M481.582,334.956L481.582,334.956H221.527V74.902
			h260.055V334.956z"/>
	</g>
</g>
<g>
	<g>
		<path d="M351.554,102.754c-56.341,0-102.176,45.837-102.176,102.176s45.836,102.176,102.176,102.176
			S453.731,261.27,453.731,204.93S407.894,102.754,351.554,102.754z M351.554,276.688c-39.569,0-71.759-32.191-71.759-71.759
			c0-39.568,32.19-71.759,71.759-71.759s71.76,32.191,71.76,71.759C423.314,244.497,391.122,276.688,351.554,276.688z"/>
	</g>
</g>
<g>
	<g>
		<rect x="304.212" y="178.477" width="30.417" height="52.906"/>
	</g>
</g>
<g>
	<g>
		<rect x="368.473" y="178.477" width="30.417" height="52.906"/>
	</g>
</g>
<g>
	<g>
		<path d="M132.377,437.098c-27.141,0-49.222-22.081-49.222-49.223v-74.661c29.111-0.191,52.737-23.925,52.737-53.08V180.59h-20.609
			v-49.863H84.867v49.863H51.026v-49.863H20.609v49.863H0v79.544c0,29.155,23.626,52.889,52.738,53.08v74.661
			c0,43.914,35.726,79.64,79.639,79.64H512v-30.417H132.377z M53.089,282.805c-12.501,0.001-22.672-10.17-22.672-22.671v-49.127
			h75.058v49.127c0,12.5-10.17,22.671-22.672,22.671H53.089z"/>
	</g>
</g>
</svg>