<?xml version="1.0" encoding="iso-8859-1"?>
<!-- Uploaded to: SVG Repo, www.svgrepo.com, Generator: SVG Repo Mixer Tools -->
<svg fill="#000000" version="1.1" id="Layer_1" xmlns="http://www.w3.org/2000/svg" xmlns:xlink="http://www.w3.org/1999/xlink" 
	 viewBox="0 0 512.025 512.025" xml:space="preserve">
<g>
	<g>
		<path d="M507.113,60.525l-128-59.7c-2.3-1.1-4.9-1.1-7.2,0l-128,59.7c-3,1.4-4.9,4.4-4.9,7.7v42.7c0,2.9,1.5,5.6,4,7.2
			c2.5,1.6,5.6,1.8,8.2,0.5l4.9-2.3v81.7l-90.8-35.3c-2-0.8-4.2-0.8-6.2,0l-153.7,59.7c-3.3,1.3-5.4,4.4-5.4,8v42.7
			c0,2.8,1.4,5.5,3.7,7c2.3,1.6,5.3,1.9,7.9,0.9l14-5.4v185.2h76.8v-76.8c0-4.7,3.8-8.5,8.5-8.5h102.4c4.7,0,8.5,3.8,8.5,8.5v76.8
			h59.7v17.1h-59.7v34.1h68.3h196.3c4.7,0,8.5-3.8,8.5-8.5v-387.1l4.9,2.3c1.1,0.5,2.4,0.8,3.6,0.8c1.6,0,3.2-0.4,4.6-1.3
			c2.5-1.6,4-4.3,4-7.2v-42.7C512.013,65.025,510.113,61.925,507.113,60.525z M221.913,349.925h-8.5h-102.5h-8.5
			c-4.7,0-8.5-3.8-8.5-8.5s3.8-8.5,8.5-8.5v-59.7c0-4.7,3.8-8.5,8.5-8.5h102.4c4.7,0,8.5,3.8,8.5,8.5v59.7c4.7,0,8.5,3.8,8.5,8.5
			C230.413,346.125,226.613,349.925,221.913,349.925z M165.213,205.425c-2-0.8-4.2-0.8-6.2,0l-142,55.2v-24.4l145.1-56.4l99.3,38.6
			l45.8,17.8v24.4L165.213,205.425z M452.313,494.925L452.313,494.925h-153.6v-17.1h153.6V494.925z M452.313,460.825
			L452.313,460.825h-153.6v-17.1h153.6V460.825z M452.313,426.725L452.313,426.725h-153.6v-17.1h153.6V426.725z M452.313,392.525
			L452.313,392.525h-153.6v-17.1h153.6V392.525z M452.313,358.425L452.313,358.425h-153.6v-17.1h153.6V358.425z M477.913,494.925
			h-8.5v-162.1c0-4.7-3.8-8.5-8.5-8.5h-162.2v-48.7l14,5.4c0.9,0.3,1.8,0.5,2.8,0.5c0.1,0,0.2,0.1,0.3,0.1c0.1,0,0.2,0,0.4-0.1
			c0.6,0,1.1-0.1,1.7-0.2c0.2-0.1,0.4-0.1,0.6-0.2c0.8-0.2,1.5-0.6,2.1-1c2.3-1.6,3.7-4.2,3.7-7v-42.7c0-3.5-2.2-6.7-5.4-8
			l-45.8-17.8v-96.2l102.4-47.8l102.4,47.8V494.925z"/>
	</g>
</g>
<g>
	<g>
		<path d="M435.213,187.725v-76.8c0-4.7-3.8-8.5-8.5-8.5h-102.4c-4.7,0-8.5,3.8-8.5,8.5v76.8c-4.7,0-8.5,3.8-8.5,8.5
			c0,4.7,3.8,8.5,8.5,8.5h8.5h102.4h8.5c4.7,0,8.5-3.8,8.5-8.5C443.713,191.625,439.913,187.725,435.213,187.725z M366.913,187.725
			h-34.1v-25.6h34.1V187.725z M366.913,145.125h-34.1v-25.6h34.1V145.125z M418.113,187.725h-34.1v-25.6h34.1V187.725z
			 M418.113,145.125h-34.1v-25.6h34.1V145.125z"/>
	</g>
</g>
<g>
	<g>
		<rect x="119.512" y="281.625" width="34.1" height="17.1"/>
	</g>
</g>
<g>
	<g>
		<rect x="170.713" y="281.625" width="34.1" height="17.1"/>
	</g>
</g>
<g>
	<g>
		<path d="M119.512,392.525v119.5h85.3v-119.5H119.512z M187.713,452.225h-8.5c-4.7,0-8.5-3.8-8.5-8.5s3.8-8.5,8.5-8.5h8.5
			c4.7,0,8.5,3.8,8.5,8.5S192.413,452.225,187.713,452.225z"/>
	</g>
</g>
<g>
	<g>
		<path d="M25.612,477.925v25.6c0,4.7,3.8,8.5,8.5,8.5h68.3v-34.1H25.612z"/>
	</g>
</g>
<g>
	<g>
		<rect x="119.512" y="315.725" width="34.1" height="17.1"/>
	</g>
</g>
<g>
	<g>
		<rect x="170.713" y="315.725" width="34.1" height="17.1"/>
	</g>
</g>
</svg>